# xmcd
#
# Track frame offsets: 
#        150
#        21077
#        38357
#        56575
#        74116
#        93783
#        113807
#        132323
#        149396
#        163925
#        182414
#        203335
#
# Disc length: 2870 seconds
#
# Revision: 0
# Processed by: cddbd v1.5.2PL0 Copyright (c) Steve Scherf et al.
# Submitted via: ExactAudioCopy v1.3
#
DISCID=9f0b340c
DTITLE=Janiva Magness - Change In The Weather Janiva Magness Sings Joh
DTITLE=n Fogerty
DYEAR=2019
DGENRE=Folk/Rock
TTITLE0=Change In The Weather
TTITLE1=Lodi (feat Sam Morrow)
TTITLE2=Someday Never Comes
TTITLE3=Wrote A Song For Everyone
TTITLE4=Don't You Wish It Was True (feat Taj Mahal)
TTITLE5=Have You Ever Seen The Rain
TTITLE6=Bad Moon Rising
TTITLE7=Blueboy
TTITLE8=Fortunate Son
TTITLE9=Deja Vu (All Over Again)
TTITLE10=A Hundred And Ten in the Shade
TTITLE11=Lookin' Out My Back Door
EXTD=
EXTT0=
EXTT1=
EXTT2=
EXTT3=
EXTT4=
EXTT5=
EXTT6=
EXTT7=
EXTT8=
EXTT9=
EXTT10=
EXTT11=
PLAYORDER=
